<?xml version="1.0" encoding="UTF-8"?><svg id="e" xmlns="http://www.w3.org/2000/svg" viewBox="0 0 408.02 408.02"><defs><style>.j{fill:#fff;}</style></defs><g id="f"><path id="g" class="j" d="m292.61,0H115.4C51.77,0,0,51.77,0,115.41v177.21c0,63.63,51.77,115.4,115.4,115.4h177.21c63.64,0,115.41-51.77,115.41-115.4V115.41c0-63.64-51.77-115.41-115.41-115.41ZM38.92,340.76c-.73-1.15-1.43-2.32-2.1-3.5h4.93c.68,1.19,1.4,2.35,2.14,3.5h-4.97Zm253.69,42.26H115.4c-27.72,0-52.57-12.55-69.16-32.26h5.33c14.39,15.94,35.21,25.97,58.33,25.97h188.22c23.12,0,43.94-10.03,58.33-25.97h5.33c-16.59,19.71-41.45,32.26-69.17,32.26Zm-229.88-42.26c-1.02-1.13-2-2.3-2.94-3.5h288.44c-.94,1.2-1.92,2.37-2.94,3.5H62.73Zm271.06,10c-10.18,6.92-22.46,10.97-35.67,10.97H109.9c-13.2,0-25.49-4.05-35.67-10.97h259.56Zm-282.74-28.5c-3.07-7.45-4.76-15.6-4.76-24.14V109.9c0-35.07,28.54-63.61,63.61-63.61h188.22c35.07,0,63.61,28.54,63.61,63.61v188.22c0,8.54-1.69,16.69-4.76,24.14H51.05Zm318.05,18.5h-4.97c.74-1.15,1.46-2.31,2.14-3.5h4.93c-.67,1.18-1.37,2.35-2.1,3.5Zm13.92-48.14c0,10.38-1.76,20.35-5,29.64h-5.09c2.47-7.61,3.8-15.72,3.8-24.14V109.9c0-43.34-35.27-78.61-78.61-78.61H109.9c-43.34,0-78.61,35.27-78.61,78.61v188.22c0,8.42,1.33,16.53,3.8,24.14h-5.09c-3.24-9.29-5-19.26-5-29.64V115.41c0-49.85,40.56-90.41,90.4-90.41h177.21c49.85,0,90.41,40.56,90.41,90.41v177.21Z"/><g id="h"><path class="j" d="m75.31,132.87c1.85-.39,3.6-1.16,5.15-2.25l-5.72-7.64c-1.01-1.35-3.15-.89-3.51.77l-1.97,9.02c1.98.48,4.06.52,6.05.1Z"/><path class="j" d="m153.75,212.02h-13.779l4.599-33.99c-5.08-.2-10.12-1.53-14.62-3.88l-12.166,37.87h-12.372l-13.313-61.27-1.4-6.43-3.29-4.42-6.08-8.12c-1.71,1.21-3.67,2.07-5.72,2.5-1.02.22-2.06.32-3.1.32-1.2,0-2.4-.14-3.56-.41l-2.23,10.2-.97,4.42,1.59,7.32,12.148,55.89h-6.388c-5.23,0-9.24,4.65-8.47,9.83l15.05,100.41h66.66l15.86-100.34c.83-5.2-3.19-9.9-8.45-9.9Zm-28.963-6.006l5.979-22.706c.069-.267.344-.427.61-.356.268.07.427.344.356.611l-5.979,22.705c-.059.225-.262.373-.483.373-.042,0-.085-.005-.127-.017-.268-.07-.427-.344-.356-.61Zm-40.987-60.114c1.03-.23,2.1-.04,3,.54.89.57,1.51,1.46,1.74,2.5l13.967,63.08h-1.484l-13.902-62.77c-.14-.66-.53-1.23-1.1-1.6-.42-.26-.89-.4-1.37-.4-.18,0-.36.02-.54.06-1.37.3-2.23,1.65-1.94,3.02l13.664,61.69h-1.483l-13.591-61.38c-.47-2.15.9-4.28,3.04-4.74Zm-14.02,7.13c-.46-2.14.9-4.27,3.05-4.74,1.03-.23,2.1-.03,2.99.54.9.58,1.52,1.46,1.74,2.5l13.442,60.69h-1.482l-13.37-60.38c-.14-.66-.54-1.22-1.11-1.59-.41-.27-.88-.4-1.36-.4-.18,0-.36.02-.55.06-.66.14-1.22.53-1.59,1.1-.36.57-.49,1.25-.34,1.91l13.131,59.3h-1.485l-13.066-58.99Zm74.328,138.893l-2.615,19.323c-.17,1.255-1.243,2.165-2.475,2.165-.111,0-.225-.007-.338-.022-1.368-.186-2.327-1.444-2.143-2.812l2.615-19.323c.186-1.368,1.445-2.329,2.812-2.143,1.368.186,2.327,1.444,2.143,2.812Zm7.922-64.125l-6.975,51.53c-.17,1.255-1.243,2.165-2.475,2.165-.111,0-.225-.007-.338-.022-1.368-.186-2.327-1.444-2.143-2.812l6.975-51.53c.186-1.368,1.451-2.328,2.812-2.143,1.368.186,2.327,1.444,2.143,2.812Z"/><path class="j" d="m138.76,146.72l-7.26,22.6c4.31,2.06,9.05,3.15,13.82,3.19l3.18-23.51c.23-1.67-.22-3.04-1.04-4.04,2.31-.25,4.49-1.44,6.05-3.13,2.67-2.89,3.74-6.98,3.77-10.92.02-3.95-.89-7.82-1.7-11.68-.8-3.86-1.52-7.81-1.1-11.72-2.09,4.35-5.57,7.84-8.8,11.42-3.24,3.58-6.39,7.5-7.54,12.18-1.09,4.4.06,9.62,3.62,12.29-1.3.48-2.43,1.56-3,3.32Z"/><path class="j" d="m145.18,173.5c-4.83-.05-9.63-1.16-13.99-3.22l-.93,2.9c4.44,2.35,9.43,3.68,14.45,3.85l.47-3.53Z"/></g><path id="i" class="j" d="m306.733,127.697h0c0-5.655-4.584-10.239-10.239-10.239h-59.882c-8.595,0-15.563,6.968-15.563,15.563v46.349c0,3.855,3.125,6.98,6.98,6.98h26.324c7.441,0,13.472-6.032,13.472-13.472h0c0-4.167,3.378-7.544,7.544-7.544h0c4.167,0,7.544,3.378,7.544,7.544v46.345c0,4.167-3.378,7.544-7.544,7.544h0c-4.167,0-7.544-3.378-7.544-7.544h0c0-7.441-6.032-13.472-13.472-13.472h-26.324c-3.855,0-6.98,3.125-6.98,6.98v46.349c0,8.595,6.968,15.563,15.563,15.563h59.882c5.655,0,10.239-4.584,10.239-10.239h0c0-4.167,3.378-7.544,7.544-7.544h0c4.167,0,7.544,3.378,7.544,7.544v46.345c0,4.167-3.378,7.544-7.544,7.544h0c-4.167,0-7.544-3.378-7.544-7.544h0c0-5.655-4.584-10.239-10.239-10.239h-121.25c-7.143,0-12.933-5.79-12.933-12.933h0c0-7.143,5.79-12.933,12.933-12.933h0c11.012,0,19.939-8.927,19.939-19.939v-117.306c0-11.012-8.927-19.939-19.939-19.939h0c-7.143,0-12.933-5.79-12.933-12.933h0c0-7.143,5.79-12.933,12.933-12.933h121.25c5.655,0,10.239-4.584,10.239-10.239h0c0-4.167,3.378-7.544,7.544-7.544h0c4.167,0,7.544,3.378,7.544,7.544v46.345c0,4.167-3.378,7.544-7.544,7.544h0c-4.167,0-7.544-3.378-7.544-7.544Z"/></g></svg>