<?xml version="1.0" encoding="UTF-8"?><svg id="c" xmlns="http://www.w3.org/2000/svg" viewBox="0 0 408.02 408.02"><defs><style>.g{fill:#2a807e;}</style></defs><path id="d" class="g" d="m292.62,0H115.4C51.77,0,0,51.77,0,115.41v177.21C0,356.25,51.77,408.02,115.4,408.02h177.22c63.63,0,115.4-51.77,115.4-115.4V115.41c0-63.64-51.77-115.41-115.4-115.41Zm-95.59,145.34l-.02,63.4h-35.64c-13.63,0-24.68,11.05-24.68,24.68v.01c0,13.63,11.05,24.68,24.68,24.68h35.64v103.62h-87.11c-35.07,0-63.6-28.54-63.6-63.61V109.9c0-35.07,28.53-63.61,63.6-63.61h188.22c35.07,0,63.6,28.54,63.6,63.61v188.22c0,35.07-28.53,63.61-63.6,63.61h-51.74v-103.62h35.62c13.64,0,24.69-11.05,24.69-24.68v-.01c0-13.63-11.05-24.68-24.69-24.68h-35.62v-63.36c0-4.47,1.81-8.52,4.74-11.45s6.98-4.74,11.45-4.74c8.94,0,16.19,7.25,16.19,16.19,0,13.5,10.94,24.44,24.44,24.44h.46c6.76,0,12.87-2.74,17.3-7.16,4.42-4.43,7.16-10.54,7.16-17.3,0-18.1-7.33-34.48-19.19-46.34-11.86-11.86-28.25-19.2-46.35-19.2-36.19,0-65.53,29.33-65.55,65.52Zm185.99,147.28c0,49.84-40.56,90.4-90.4,90.4h-46.24v-6.29h51.74c43.34,0,78.6-35.27,78.6-78.61V109.9c0-43.34-35.26-78.61-78.6-78.61H109.9c-43.34,0-78.6,35.27-78.6,78.61v188.22c0,43.34,35.26,78.61,78.6,78.61h87.11v6.29h-81.61c-49.84,0-90.4-40.56-90.4-90.4V115.41c0-49.85,40.56-90.41,90.4-90.41h177.22c49.84,0,90.4,40.56,90.4,90.41v177.21Z"/></svg>