<?xml version="1.0" encoding="utf-8"?>
<!-- Generator: Adobe Adobe Illustrator 24.2.0, SVG Export Plug-In . SVG Version: 6.00 Build 0)  -->
<svg version="1.1" xmlns="http://www.w3.org/2000/svg" xmlns:xlink="http://www.w3.org/1999/xlink" x="0px" y="0px"
	 viewBox="0 0 200 165.1" style="enable-background:new 0 0 200 165.1;" xml:space="preserve">
<style type="text/css">
	.st0{fill:#2A807E;}
	.st1{fill:url(#DotOnder2_4_);}
	.st2{fill:url(#DotOnder1_3_);}
	.st3{fill-rule:evenodd;clip-rule:evenodd;fill:url(#CirclesWhite_2_);}
	.st4{fill:url(#Bow_2_);}
	.st5{fill:url(#Dot5_1_);}
	.st6{fill:url(#Dot4_2_);}
	.st7{fill:url(#Dot3_5_);}
	.st8{fill:url(#Dot2_5_);}
	.st9{fill:url(#Dot1_4_);}
	.st10{fill:url(#DotOnder2_5_);}
	.st11{fill-rule:evenodd;clip-rule:evenodd;fill:url(#CirclesWhite_3_);}
	.st12{fill:url(#Bow_3_);}
	.st13{fill:url(#Dot3_6_);}
	.st14{fill:url(#Dot2_6_);}
	.st15{fill:url(#Dot1_5_);}
	.st16{fill:url(#Dot2_7_);}
	.st17{fill:url(#Dot1_6_);}
	.st18{fill:url(#DotOnder2_6_);}
	.st19{fill:url(#DotOnder1_4_);}
	.st20{fill-rule:evenodd;clip-rule:evenodd;fill:url(#Circles_2_);}
	.st21{fill:url(#Bows_3_);}
	.st22{fill:url(#Dot3_7_);}
	.st23{fill:url(#Dot3_8_);}
	.st24{fill:url(#Dot2_8_);}
	.st25{fill:url(#Dot1_7_);}
	.st26{fill:url(#DotOnder2_7_);}
	.st27{fill:url(#DotOnder1_5_);}
	.st28{fill-rule:evenodd;clip-rule:evenodd;fill:url(#Circles_3_);}
	.st29{fill:url(#Bows_4_);}
	.st30{fill:url(#Dot4_3_);}
	.st31{fill:url(#Dot3_9_);}
	.st32{fill:url(#Dot2_9_);}
	.st33{fill:url(#Dot0_1_);}
	.st34{fill:#FFFFFF;stroke:#000000;stroke-miterlimit:10;}
	.st35{fill:url(#SVGID_1_);stroke:#000000;stroke-miterlimit:10;}
	.st36{fill:url(#Bows_5_);}
	.st37{fill:#FFFFFF;}
	.st38{fill:#EAC130;stroke:#EAC130;stroke-miterlimit:10;}
	.st39{fill:#2A807E;stroke:#2A807E;stroke-miterlimit:10;}
	.st40{fill:#FFFFFF;stroke:#665A5A;stroke-miterlimit:10;}
	.st41{stroke:#000000;stroke-miterlimit:10;}
</style>
<g id="ArtIndex">
</g>
<g id="ArtIndexsStep1">
</g>
<g id="BaackgrDeskStep1">
</g>
<g id="BackgrDesktopFull">
	<g id="Layer_9">
	</g>
</g>
<g id="Layer_8">
</g>
<g id="Logo">
</g>
<g id="HamburgerIcon">
	<path id="Hamburger" class="st37" d="M141.5,7.6c0,2.8-2.3,5.6-5.6,5.6l-76.1-0.9c-2.8,0-5.6-2.3-5.6-5.6c0-2.8,2.3-5.6,5.6-5.6
		L136,1.6C139.2,2.1,141.5,4.8,141.5,7.6z M0,107.9c0-2.8,2.3-5.6,5.6-5.6h188.9c2.8,0,5.6,2.3,5.6,5.6c0,2.8-2.3,5.6-5.6,5.6H5.6
		C2.3,113.4,0,111.1,0,107.9z M54.3,158.4c0-2.8,2.3-5.6,5.6-5.6H136c2.8,0,5.6,2.3,5.6,5.6c0,3.2-2.3,5.6-5.6,5.6H59.9
		C57.1,164,54.3,161.7,54.3,158.4z M38.1,127.8c-2.8,0-5.6,2.3-5.6,5.6s2.3,5.6,5.6,5.6h123.4c2.8,0,5.6-2.3,5.6-5.6
		s-2.3-5.6-5.6-5.6H38.1z M161.5,37.8c2.8,0,5.6-2.3,5.6-5.6c0-2.8-2.3-5.6-5.6-5.6L38.1,25.7c-2.8,0-5.6,2.3-5.6,5.6
		c0,2.8,2.3,5.6,5.6,5.6L161.5,37.8z M167.1,82.8c0,2.8-2.3,5.6-5.6,5.6L38.1,87.4c-2.8,0-5.6-2.3-5.6-5.6c0-2.8,2.3-5.6,5.6-5.6
		l123.4,0.9C164.7,77.2,167.1,80,167.1,82.8z M5.6,52.2c-3.2,0-5.6,2.3-5.6,5.1s2.3,5.6,5.6,5.6h188.9c2.8,0,5.6-2.3,5.6-5.6
		c0-2.8-2.3-5.6-5.6-5.6H5.6V52.2z"/>
</g>
<g id="Layer_7">
</g>
</svg>
