<?xml version="1.0" encoding="UTF-8"?><svg id="d" xmlns="http://www.w3.org/2000/svg" viewBox="0 0 408.02 408.02"><defs><style>.g{fill:#fff;}</style></defs><path id="e" class="g" d="m115.279,175.495c0-15.516,12.579-28.095,28.095-28.095s28.095,12.579,28.095,28.095-12.579,28.095-28.095,28.095-28.095-12.579-28.095-28.095Zm128.261,201.235v6.29h49.07c1.8,0,3.58-.05,5.35-.16v-6.13h-54.42ZM408.02,115.41v177.21c0,63.63-51.77,115.4-115.41,115.4H115.4c-63.63,0-115.4-51.77-115.4-115.4V115.41C0,51.77,51.77,0,115.4,0h177.21c63.64,0,115.41,51.77,115.41,115.41Zm-218.89,261.32h-18.55v6.29h18.55v-6.29Zm108.83,0h-54.42v6.29h49.07c1.8,0,3.58-.05,5.35-.16v-6.13Zm0-95.15c0-7.51-3.05-14.31-7.97-19.23-5.03-5.04-12.02-8.11-19.73-7.97-14.93.26-26.72,12.87-26.72,27.81v79.54h54.42v-80.15Zm51.39-4.82c0,12.58-.02,36.84-.06,59.1,7.82-10.57,12.44-23.62,12.44-37.74V109.9c0-35.07-28.54-63.61-63.61-63.61H109.9c-35.07,0-63.6,28.54-63.6,63.61v188.22c0,35.07,28.53,63.61,63.6,63.61h6.27v-123.82c0-13.45,10.89-24.34,24.34-24.34h5.73c13.44,0,24.34,10.89,24.34,24.34v123.82h18.55v-120.35c0-14.94,11.78-27.55,26.72-27.81,7.71-.14,14.7,2.93,19.72,7.97,3.74,3.73,6.4,8.56,7.46,13.95,33.05-40.82,106.32-29.23,106.32,41.27Zm33.67-161.35c0-49.85-40.56-90.41-90.41-90.41H115.4c-49.84,0-90.4,40.56-90.4,90.41v177.21c0,49.84,40.56,90.4,90.4,90.4h.77v-6.29h-6.27c-43.34,0-78.6-35.27-78.6-78.61V109.9c0-43.34,35.26-78.61,78.6-78.61h188.22c43.34,0,78.61,35.27,78.61,78.61v188.22c0,23.83-10.66,45.22-27.46,59.65,0,1.81-.01,3.57-.01,5.25,20.57-16.58,33.76-41.98,33.76-70.4V115.41Zm-139.48,261.32v6.29h49.07c1.8,0,3.58-.05,5.35-.16v-6.13h-54.42Z"/></svg>