<?xml version="1.0" encoding="utf-8"?>
<!-- Generator: Adobe Adobe Illustrator 24.2.0, SVG Export Plug-In . SVG Version: 6.00 Build 0)  -->
<svg version="1.1" id="Capa_1" xmlns="http://www.w3.org/2000/svg" xmlns:xlink="http://www.w3.org/1999/xlink" x="0px" y="0px"
	 viewBox="0 0 800 800" style="enable-background:new 0 0 800 800;" xml:space="preserve">
<style type="text/css">
	.st0{fill:#2A807F;}
</style>
<g>
	<g>
		<path class="st0" d="M632.3,495.6c-16.4-17.1-36.1-26.2-57.1-26.2c-20.8,0-40.7,8.9-57.7,26l-53.4,53.2c-4.4-2.4-8.8-4.6-13-6.8
			c-6.1-3-11.8-5.9-16.7-8.9c-50-31.7-95.4-73.1-139-126.6c-21.1-26.7-35.3-49.1-45.6-71.9c13.8-12.7,26.7-25.8,39.2-38.5
			c4.7-4.7,9.5-9.6,14.2-14.4c35.5-35.5,35.5-81.4,0-116.8l-46.1-46.1c-5.2-5.2-10.6-10.6-15.7-16c-10.1-10.5-20.8-21.3-31.7-31.4
			c-16.4-16.2-36-24.8-56.6-24.8s-40.5,8.6-57.4,24.8c-0.2,0.2-0.2,0.2-0.3,0.3l-57.4,57.9C16.3,151,4,177.3,1.3,207.9
			c-4.1,49.3,10.5,95.2,21.6,125.3c27.4,73.8,68.2,142.2,129.2,215.4c74,88.3,162.9,158,264.6,207.2c38.8,18.4,90.7,40.2,148.6,43.9
			c3.5,0.2,7.3,0.3,10.6,0.3c39,0,71.8-14,97.4-41.9c0.2-0.3,0.5-0.5,0.7-0.8c8.8-10.6,18.9-20.3,29.5-30.6
			c7.3-6.9,14.7-14.2,21.9-21.8c16.7-17.4,25.5-37.7,25.5-58.4c0-20.9-8.9-41-26-57.9L632.3,495.6z M692.7,673.4
			C692.5,673.4,692.5,673.5,692.7,673.4c-6.6,7.1-13.3,13.5-20.6,20.6c-11,10.5-22.1,21.4-32.6,33.8c-17.1,18.2-37.1,26.8-63.5,26.8
			c-2.5,0-5.2,0-7.8-0.2c-50.1-3.2-96.7-22.8-131.7-39.5C341,668.6,257.1,603,187.3,519.7c-57.6-69.4-96.1-133.6-121.6-202.4
			c-15.7-42-21.4-74.8-18.9-105.7c1.7-19.8,9.3-36.1,23.3-50.1l57.6-57.6c8.3-7.8,17.1-12,25.7-12c10.6,0,19.2,6.4,24.7,11.8
			c0.2,0.2,0.3,0.3,0.5,0.5c10.3,9.6,20.1,19.6,30.4,30.2c5.2,5.4,10.6,10.8,16,16.4l46.1,46.1c17.9,17.9,17.9,34.4,0,52.3
			c-4.9,4.9-9.6,9.8-14.5,14.5c-14.2,14.5-27.7,28-42.4,41.2c-0.3,0.3-0.7,0.5-0.8,0.8c-14.5,14.5-11.8,28.7-8.8,38.3
			c0.2,0.5,0.3,1,0.5,1.5c12,29,28.9,56.4,54.5,89l0.2,0.2c46.6,57.4,95.7,102.2,149.9,136.4c6.9,4.4,14,7.9,20.8,11.3
			c6.1,3,11.8,5.9,16.7,8.9c0.7,0.3,1.4,0.8,2,1.2c5.7,2.9,11.1,4.2,16.7,4.2c14,0,22.8-8.8,25.7-11.7l57.7-57.7
			c5.7-5.7,14.9-12.7,25.5-12.7c10.5,0,19.1,6.6,24.3,12.3c0.2,0.2,0.2,0.2,0.3,0.3l93,93C709.9,637.7,709.9,655.5,692.7,673.4z"/>
		<path class="st0" d="M432.3,190.3c44.2,7.4,84.4,28.4,116.5,60.4s52.8,72.3,60.4,116.5c1.9,11.1,11.5,18.9,22.5,18.9
			c1.4,0,2.5-0.2,3.9-0.3c12.5-2,20.8-13.8,18.7-26.3c-9.1-53.5-34.4-102.3-73.1-141c-38.7-38.7-87.5-64-141-73.1
			c-12.5-2-24.1,6.2-26.3,18.6C411.7,176.3,419.8,188.3,432.3,190.3z"/>
		<path class="st0" d="M799.1,352.9c-15-88.1-56.6-168.3-120.4-232.2S534.7,15.4,446.5,0.3c-12.3-2.2-24,6.2-26.2,18.6
			c-2,12.5,6.2,24.1,18.7,26.3c78.7,13.3,150.4,50.7,207.5,107.6c57.1,57.1,94.2,128.8,107.6,207.5c1.9,11.1,11.5,18.9,22.5,18.9
			c1.4,0,2.5-0.2,3.9-0.3C792.8,377,801.3,365.2,799.1,352.9z"/>
	</g>
</g>
</svg>
