<?xml version="1.0" encoding="UTF-8"?><svg id="d" xmlns="http://www.w3.org/2000/svg" viewBox="0 0 330 376"><defs><style>.v{fill:#f2f2b3;stroke-width:10px;}.v,.w,.x,.y,.z,.aa,.ab,.ac{stroke-linecap:round;stroke-miterlimit:10;}.v,.y,.ac{stroke:#e0bb7e;}.w,.y,.z,.aa,.ab,.ac{fill:none;}.w,.z,.ac{stroke-width:5px;}.w,.aa{stroke:#c4a031;}.x{fill:#1e8a2d;}.x,.z{stroke:#295934;}.x,.aa,.ab{stroke-width:15px;}.ad{fill:#e6e15a;}.y{stroke-width:2px;}.ab{stroke:#fff;}</style></defs><path class="ad" d="m108.4,276.998c-31.333-.534-59.717-22.223-74.486-49.862s-17.615-60.268-14.945-91.492c1.959-22.908,6.842-45.898,17.661-66.185,10.819-20.287,28.038-37.746,49.596-45.738,25.352-9.398,54.185-4.892,78.797,6.303,24.612,11.194,45.818,28.548,66.714,45.707,13.027,10.697,26.054,21.394,39.081,32.091,7.025,5.768,14.522,12.317,16.06,21.276,1.663,9.685-4.161,18.912-9.742,27-16.614,24.078-33.536,48.122-53.897,69.128-20.361,21.005-44.453,39.007-72.04,48.738-14.004,4.94-28.817,3.273-42.796,3.035Z"/><path class="x" d="m298.26,22.925c-15.07,4.825-27.803,16.485-33.933,31.072s-5.547,31.843.304,46.829c15.782-.476,29.336-12.965,35.194-27.628,5.858-14.663,5.335-31.076-1.565-50.273Z"/><path class="x" d="m115.263,280.39c-14.103-2.429-29.189,1.6-40.203,10.737-11.014,9.138-17.759,23.22-19.33,37.685,12.857,6.215,28.947,1.863,39.774-7.448,10.827-9.311,17.268-22.694,19.758-40.974Z"/><path class="x" d="m124.944,284.264c-4.927,13.436-3.678,29,3.328,41.478,7.007,12.478,19.646,21.647,33.592,25.795,8.427-11.529,7.041-28.139-.17-40.465-7.211-12.326-19.216-21.07-36.75-26.809Z"/><path class="x" d="m234.679,21.058c-7.047,9.454-9.716,22.041-7.113,33.542,2.603,11.501,10.432,21.711,20.473,28.262,9.363-7.127,12.17-20.571,9.369-31.999s-10.229-21.154-22.729-29.805Z"/><path class="z" d="m269.938,95.097c1.7-12.92,6.368-25.44,13.541-36.319"/><path class="z" d="m249.733,76.045c-3.056-8.306-6.112-16.611-9.168-24.917"/><path class="z" d="m82.885,306.489c9.776-9.824,21.651-17.549,34.594-22.505"/><path class="z" d="m124.87,288.9c9.33,7.793,16.659,17.962,21.101,29.277"/><ellipse class="aa" cx="104.945" cy="150.214" rx="85.5" ry="125"/><path class="aa" d="m77.844,31.63c76.637-42.037,153.407,51.495,180.127,67.941,50.62,31.156,25.678,46.536,7.068,70.962-23.432,30.757-80.806,141.055-182.384,100.381"/><ellipse class="v" cx="104.945" cy="150.214" rx="66" ry="104"/><path class="w" d="m242.516,172.612c-3.393,7.969-7.97,15.434-13.535,22.071"/><path class="w" d="m222.251,203.886c-2.702,3.627-5.404,7.255-8.105,10.882"/><path class="w" d="m206.565,224.796c-2.82,2.851-5.64,5.703-8.46,8.554"/><path class="w" d="m189.556,241.322c-1.68,1.348-3.36,2.696-5.04,4.043"/><path class="ab" d="m198.447,79.05c12.483,9.092,23.205,20.593,31.398,33.683"/><ellipse class="ac" cx="96.639" cy="146.339" rx="12" ry="18"/><line class="ac" x1="146.463" y1="70.114" x2="104.785" y2="131.539"/><line class="ac" x1="87.77" y1="133.692" x2="54.112" y2="80.502"/><line class="ac" x1="86.342" y1="157.684" x2="47.099" y2="193.549"/><line class="ac" x1="98.4" y1="165.749" x2="105.762" y2="255.135"/><line class="ac" x1="109.176" y1="149.641" x2="168.559" y2="150.1"/><line class="y" x1="107.383" y1="136.761" x2="117.64" y2="127.705"/><line class="y" x1="109.873" y1="141.068" x2="114.834" y2="138.986"/><line class="y" x1="149.371" y1="78.924" x2="141.681" y2="88.546"/><line class="y" x1="152.452" y1="84.409" x2="147.733" y2="89.323"/><line class="y" x1="155.36" y1="90.964" x2="151.316" y2="95.345"/><line class="y" x1="163.92" y1="116.155" x2="155.342" y2="120.473"/><line class="y" x1="165.385" y1="125.781" x2="160.368" y2="127.927"/><line class="y" x1="135.573" y1="62.429" x2="131.844" y2="69.511"/><line class="y" x1="121.501" y1="51.96" x2="117.898" y2="60.475"/><line class="y" x1="113.116" y1="51.323" x2="112.251" y2="57.634"/><line class="y" x1="92.635" y1="62.455" x2="91.467" y2="53.572"/><line class="y" x1="86.425" y1="63.675" x2="84.979" y2="56.97"/><line class="y" x1="71.174" y1="76.45" x2="66.555" y2="70.102"/><line class="y" x1="98.759" y1="115.573" x2="97.347" y2="126.941"/><line class="y" x1="91.474" y1="128.137" x2="88.299" y2="117.171"/><line class="y" x1="47.145" y1="110.899" x2="54.322" y2="115.236"/><line class="y" x1="84.58" y1="135.952" x2="82.328" y2="134.116"/><line class="y" x1="61.002" y1="106.765" x2="52.53" y2="97.132"/><line class="y" x1="43.007" y1="129.04" x2="48.98" y2="130.442"/><line class="y" x1="83.875" y1="143.553" x2="77.244" y2="143.013"/><line class="y" x1="84.546" y1="154.183" x2="77.201" y2="155.828"/><line class="y" x1="55.529" y1="152.183" x2="42.409" y2="153.882"/><line class="y" x1="55.566" y1="165.473" x2="41.498" y2="170.994"/><line class="y" x1="53.843" y1="208.549" x2="62.164" y2="199.993"/><line class="y" x1="56.835" y1="213.056" x2="60.677" y2="208.655"/><line class="y" x1="92.269" y1="164.797" x2="89.291" y2="170.784"/><line class="y" x1="73.042" y1="237.466" x2="75.84" y2="230.314"/><line class="y" x1="78.071" y1="240.892" x2="79.759" y2="235.711"/><line class="y" x1="98.89" y1="240.803" x2="98.552" y2="249.79"/><line class="y" x1="165.35" y1="174.978" x2="152.484" y2="172.047"/><line class="y" x1="164.987" y1="180.892" x2="158.571" y2="179.01"/><line class="y" x1="162.418" y1="201.949" x2="143.863" y2="196.407"/><line class="y" x1="156.414" y1="212.824" x2="144.814" y2="208.418"/><line class="y" x1="148.422" y1="224.389" x2="142.599" y2="221.202"/><line class="y" x1="138.714" y1="235.947" x2="134.36" y2="228.941"/><line class="y" x1="126.024" y1="244.401" x2="121.999" y2="231.861"/><line class="y" x1="117.809" y1="250.07" x2="114.923" y2="243.033"/><line class="y" x1="116.663" y1="164.703" x2="107.84" y2="157.858"/><line class="y" x1="109.481" y1="170.579" x2="102.433" y2="162.575"/></svg>