<?xml version="1.0" encoding="UTF-8"?><svg id="e" xmlns="http://www.w3.org/2000/svg" viewBox="0 0 410 300"><defs><style>.w,.x,.y,.z,.aa,.ab{stroke-linecap:round;stroke-miterlimit:10;}.w,.y,.z{stroke-width:5px;}.w,.y,.z,.ab{fill:none;}.w,.aa{stroke:#c4a031;}.x{fill:#1e8a2d;}.x,.y{stroke:#295934;}.x,.aa,.ab{stroke-width:15px;}.z{stroke:#757143;}.aa{fill:#e6e15a;}.ab{stroke:#fff;}</style></defs><path class="x" d="m306.109,106.651c12.912-3.691,23.841-13.739,28.6-26.297,4.759-12.558,3.236-27.325-4.195-39.462-12.449,1.651-24.027,8.996-30.825,19.555s-8.691,24.139-5.04,36.155c.827,2.723,1.972,5.44,3.979,7.457s5.054,3.286,7.481,2.592Z"/><path class="x" d="m322.105,118.322c10.535,8.328,25.073,11.334,38.048,7.866s24.074-13.326,29.588-26.445c-8.608-9.143-21.332-14.255-33.873-13.609s-24.672,7.038-32.296,17.017c-1.728,2.262-3.265,4.777-3.731,7.584s.283,6.021,2.263,7.587Z"/><path class="x" d="m64.652,184.666c-13.425-.345-26.861,5.97-35.162,16.526-8.302,10.556-11.27,25.102-7.814,38.907,12.372,2.153,25.619-1.388,35.266-9.427s15.521-20.429,15.635-32.986c.026-2.846-.252-5.78-1.564-8.306s-3.838-4.648-6.361-4.713Z"/><path class="x" d="m81.768,206.42c-10.544,8.317-16.839,21.762-16.474,35.187s7.381,26.508,18.863,34.914c10.89-6.254,18.813-17.445,21.092-29.794s-1.125-25.632-9.064-35.361c-1.799-2.205-3.889-4.284-6.513-5.388s-5.923-1.121-7.905.442Z"/><path class="y" d="m305.419,105.945c-1.402-15.519,3.733-31.525,13.903-43.331"/><path class="y" d="m315.952,113.803c17.087.418,34.261-3.351,49.603-10.885"/><path class="y" d="m38.884,222.064c5.708-15.06,17.286-27.806,31.73-34.93"/><path class="y" d="m83.491,251.9c4.077-14.786,3.817-30.74-.74-45.386"/><path class="aa" d="m188.073,40.892c-80.124,0-97.702,64.485-127.484,73.442-21.256,6.393-34.762,43.578-.491,61.506,27.414,14.341,54.756,68.231,126.065,68.231,77.841,0,94.355-61.311,122.918-74.018,27.701-12.324,22.8-45.889,1.194-54.4-31.908-12.568-57.076-74.763-122.202-74.763Z"/><path id="f" class="ab" d="m197.676,64.878c32.789,8.265,61.824,30.452,78.412,59.918"/><path class="z" d="m65.612,158.407c-5.8-5.007-8.855-13.015-7.865-20.613"/><path class="z" d="m54.779,155.295c1.565-8.408,7.115-15.983,14.659-20.012"/><path class="w" d="m219.104,212.446l3.974-3.265"/><path class="w" d="m234.598,200.202c2.121-1.923,4.241-3.847,6.362-5.77"/><path class="w" d="m250.358,186.191l4.185-5.208"/></svg>