<?xml version="1.0" encoding="UTF-8"?><svg id="c" xmlns="http://www.w3.org/2000/svg" viewBox="0 0 384 406"><defs><style>.v{fill:#1e8a2d;}.v,.w,.x,.y,.z,.aa{stroke-linecap:round;stroke-miterlimit:10;}.v,.x{stroke:#295934;}.v,.y{stroke-width:15px;}.ab{fill:#e6e15a;}.w{stroke-width:10px;}.w,.x,.y,.z,.aa{fill:none;}.w,.z,.aa{stroke:#e0bb7e;}.ac{fill:#f2f2b3;}.x,.z{stroke-width:5px;}.y{stroke:#c4a031;}.aa{stroke-width:3px;}</style></defs><path class="ab" d="m154.807,330.335c-36.004,10.703-66.537-2.421-94.895-27.051-28.358-24.63-43.427-63.451-40.096-100.864,1.93-21.679,9.775-42.882,22.899-60.245,21.686-28.689,57.969-45.708,93.893-44.041,35.924,1.667,70.476,21.973,89.927,52.237l-.246-.065c.186-.039.371-.078,1.217-.235,32.075-3.817,65.794,5.109,90.761,25.603,24.967,20.494,40.442,52.589,39.314,84.87-.562,16.074-5.02,31.799-10.981,46.737-7.825,19.61-18.706,38.655-35.315,51.69-14.286,11.212-32.215,17.363-50.325,18.703-18.111,1.34-36.392-1.98-53.432-8.259-10.168-3.747-20.081-8.63-28.157-15.854s-24.771-13.327-24.562-23.226Z"/><path class="ac" d="m239.633,176.603c-23.142.728-45.763,11.493-61.06,28.875-15.297,17.381-23.094,41.107-21.27,64.189,1.635,20.69,10.9,40.691,25.625,55.317,21.476,21.332,54.433,30.27,83.79,22.895,29.358-7.375,54.124-30.731,63.387-59.548,4.626-14.393,5.556-29.958,2.675-44.8-4.116-21.21-16.282-40.927-33.96-53.349s-40.433-14.17-59.188-13.58Z"/><path class="ac" d="m138.133,297.399c-9.758,3.847-20.835,2.534-30.862-.547-30.164-9.269-54.906-35.239-61.481-66.102s5.935-65.286,31.528-83.746c15.197-10.962,33.915-16.177,52.565-17.995,13.395-1.306,27.245-.905,39.827,3.871s23.787,14.44,28.001,27.221c-24.266,11.689-44.094,32.328-54.801,57.043-10.707,24.715-12.203,53.296-4.777,80.255Z"/><path class="v" d="m251.011,46.852c-15.019,9.667-25.963,25.463-29.736,42.921s-.33,36.364,10.685,54.141c14.518-10.309,24.915-26.262,28.487-43.705s.279-36.199-9.435-53.357Z"/><path class="v" d="m165.087,19.072c-7.71,19.634-7.282,42.324,1.162,61.653,8.444,19.33,24.8,35.061,47.631,44.481,6.786-19.903,5.727-42.365-2.901-61.541-8.628-19.176-24.735-34.868-45.892-44.593Z"/><path class="v" d="m310.873,99.901c-12.312-2.669-25.647-.249-36.236,6.576-10.589,6.825-18.3,17.97-21.673,32.33,12.382,2.099,25.523-.671,36.003-7.59,10.481-6.919,18.192-17.914,21.905-31.315Z"/><path class="v" d="m147.916,339.567c-12.312-2.669-25.647-.249-36.236,6.576s-18.3,17.97-21.673,32.33c12.382,2.099,25.523-.671,36.003-7.59,10.481-6.919,18.192-17.914,21.905-31.315Z"/><path class="x" d="m213.211,120.01c-16.171-15.179-27.077-35.864-30.466-57.783"/><path class="x" d="m233.542,135.305l5.236-39.284"/><path class="x" d="m259.467,132.22c10.928-4.227,20.925-10.84,29.091-19.243"/><path class="x" d="m112.156,359.941c13.591-4.798,25.459-14.331,33.074-26.567"/><path class="w" d="m132.462,302.949c-48.271,0-87.403-39.132-87.403-87.403s39.132-87.403,87.403-87.403c24.136,0,45.986,9.783,61.803,25.6"/><circle class="w" cx="246.462" cy="262.546" r="87.403"/><circle class="w" cx="246.462" cy="262.546" r="87.403"/><ellipse class="z" cx="246.462" cy="262.546" rx="13.5" ry="18.5"/><ellipse class="z" cx="132.462" cy="215.546" rx="13.5" ry="18.5"/><line class="z" x1="236.764" y1="175.143" x2="244.885" y2="243.067"/><line class="z" x1="260.406" y1="258.481" x2="326.844" y2="228.176"/><line class="z" x1="257.445" y1="274.939" x2="310.437" y2="326.003"/><line class="z" x1="239.057" y1="278.012" x2="197.327" y2="334.837"/><line class="z" x1="161.748" y1="249.124" x2="232.905" y2="258.988"/><line class="z" x1="122.602" y1="228.176" x2="72.161" y2="281.046"/><line class="z" x1="118.962" y1="212.417" x2="50.141" y2="194.17"/><line class="z" x1="139.358" y1="128.143" x2="133.086" y2="196.542"/><line class="aa" x1="250.364" y1="243.702" x2="252.818" y2="234.46"/><line class="aa" x1="257.069" y1="249.651" x2="261.277" y2="244.844"/><line class="aa" x1="290.94" y1="230.865" x2="315.58" y2="213.683"/><line class="aa" x1="304" y1="199.373" x2="290.86" y2="215.058"/><line class="aa" x1="284.913" y1="186.858" x2="280.038" y2="197.244"/><line class="aa" x1="257.562" y1="176.473" x2="256.913" y2="193.852"/><line class="aa" x1="216.242" y1="184.103" x2="218.785" y2="191.097"/><line class="aa" x1="204.797" y1="188.978" x2="208.188" y2="194.7"/><line class="aa" x1="187.939" y1="197.76" x2="200.809" y2="213.703"/><line class="aa" x1="175.336" y1="215.047" x2="181.271" y2="220.982"/><line class="aa" x1="168.554" y1="230.943" x2="173.641" y2="233.487"/><line class="aa" x1="234.257" y1="251.29" x2="222.6" y2="243.66"/><line class="aa" x1="239.556" y1="245.144" x2="235.105" y2="238.15"/><line class="aa" x1="222.946" y1="271.1" x2="234.124" y2="267.088"/><line class="aa" x1="228.535" y1="278.056" x2="233.375" y2="274.021"/><line class="aa" x1="245.069" y1="280.456" x2="243.853" y2="294.247"/><line class="aa" x1="252.507" y1="280.92" x2="259.136" y2="291.785"/><line class="aa" x1="260.406" y1="270.233" x2="265.876" y2="271.967"/><line class="aa" x1="262.446" y1="261.676" x2="267.745" y2="261.676"/><line class="aa" x1="208.921" y1="338.505" x2="218.476" y2="326.003"/><line class="aa" x1="219.189" y1="341.905" x2="224.316" y2="332.777"/><line class="aa" x1="237.829" y1="346.924" x2="238.316" y2="339.414"/><line class="aa" x1="272.787" y1="342.277" x2="267.651" y2="324.317"/><line class="aa" x1="286.211" y1="337.131" x2="281.919" y2="329.072"/><line class="aa" x1="294.874" y1="330.982" x2="291.695" y2="325.895"/><line class="aa" x1="315.733" y1="309.998" x2="304.78" y2="302.121"/><line class="aa" x1="323.836" y1="293.419" x2="318.135" y2="291.359"/><line class="aa" x1="328.107" y1="278.439" x2="323.529" y2="277.552"/><line class="aa" x1="331.541" y1="261.04" x2="326.666" y2="261.464"/><line class="aa" x1="328.984" y1="239.765" x2="322.229" y2="242.68"/><line class="aa" x1="162.407" y1="261.252" x2="169.19" y2="260.192"/><line class="aa" x1="163.498" y1="274.021" x2="169.584" y2="272.066"/><line class="aa" x1="167.296" y1="286.825" x2="172.748" y2="284.138"/><line class="aa" x1="168.554" y1="302.202" x2="188.95" y2="294.261"/><line class="aa" x1="184.575" y1="320.301" x2="187.183" y2="318.128"/><line class="aa" x1="139.447" y1="199.236" x2="142.572" y2="192.499"/><line class="aa" x1="185.524" y1="149.317" x2="178.376" y2="157.342"/><line class="aa" x1="177.132" y1="143.914" x2="173.924" y2="149.137"/><line class="aa" x1="169.692" y1="140.289" x2="164.08" y2="154.4"/><line class="aa" x1="164.586" y1="138.794" x2="163.054" y2="142.898"/><line class="aa" x1="149.348" y1="133.176" x2="148.3" y2="143.248"/><line class="aa" x1="116.895" y1="132.697" x2="118.486" y2="145.493"/><line class="aa" x1="108.355" y1="136.457" x2="109.314" y2="141.809"/><line class="aa" x1="84.487" y1="146.732" x2="90.644" y2="154.948"/><line class="aa" x1="77.768" y1="152.26" x2="81.463" y2="156.578"/><line class="aa" x1="65.839" y1="162.469" x2="71.832" y2="167.896"/><line class="aa" x1="61.729" y1="170.479" x2="63.896" y2="172.476"/><line class="aa" x1="53.285" y1="187.253" x2="64.58" y2="191.753"/><line class="aa" x1="47.192" y1="201.828" x2="60.784" y2="204.385"/><line class="aa" x1="47.922" y1="209.11" x2="53.435" y2="209.707"/><line class="aa" x1="48.055" y1="218.772" x2="53.155" y2="218.981"/><line class="aa" x1="50.291" y1="241.166" x2="62.942" y2="237.473"/><line class="aa" x1="56.4" y1="252.796" x2="62.406" y2="250.384"/><line class="aa" x1="65.459" y1="265.531" x2="68.204" y2="263.443"/><line class="aa" x1="117.458" y1="217.762" x2="106.451" y2="219.041"/><line class="aa" x1="117.123" y1="223.104" x2="113.113" y2="224.941"/><line class="aa" x1="119.468" y1="205.115" x2="115.541" y2="202.546"/><line class="aa" x1="120.807" y1="193.605" x2="124.581" y2="199.106"/><line class="aa" x1="127.45" y1="231.916" x2="122.978" y2="237.824"/><line class="aa" x1="81.492" y1="282.315" x2="87.934" y2="275.662"/><line class="aa" x1="91.187" y1="288.544" x2="93.723" y2="284.398"/><line class="aa" x1="107.418" y1="295.435" x2="111.635" y2="286.259"/><line class="aa" x1="120.698" y1="297.794" x2="121.442" y2="293.73"/><path class="y" d="m132.462,262.546c0,24.23,7.56,46.7,20.46,65.17-6.64,1.2-13.48,1.83-20.46,1.83-62.97,0-114-51.04-114-114s51.03-114,114-114c38.73,0,72.94,19.31,93.54,48.83-53.2,9.64-93.54,56.19-93.54,112.17Z"/><path class="y" d="m360.462,262.546c0,62.96-51.04,114-114,114-38.73,0-72.95-19.31-93.54-48.83-12.9-18.47-20.46-40.94-20.46-65.17,0-55.98,40.34-102.53,93.54-112.17,6.64-1.2,13.48-1.83,20.46-1.83,62.96,0,114,51.04,114,114Z"/></svg>